<svg width="723" height="214" viewBox="0 0 723 214" fill="none" xmlns="http://www.w3.org/2000/svg">
<path fill-rule="evenodd" clip-rule="evenodd" d="M68.1582 212.494L67.3008 213.874H69.0172L68.1582 212.494ZM207.979 95.2488L267.136 0.0288086H200.155L174.459 41.39L207.979 95.2488Z" fill="white"/>
<path fill-rule="evenodd" clip-rule="evenodd" d="M221.389 213.872L88.5352 0.0283203H155.516L288.37 213.872H221.389Z" fill="#D22A1D"/>
<path fill-rule="evenodd" clip-rule="evenodd" d="M0.929688 0.0307617L133.782 213.873H134.281L167.574 160.451L67.9107 0.0307617H0.929688Z" fill="white"/>
<path d="M69.9723 171.77C63.6362 164.1 79.004 151.066 87.4798 145.508C73.5162 153.22 59.9673 166.142 66.22 175.938C72.4726 185.734 91.2307 181.357 101.443 178.648C111.656 175.938 140.21 161.765 161.678 150.094C178.852 140.756 203.432 123.832 213.575 116.538C166.221 143.883 122.286 163.085 106.237 169.269C96.7889 173.298 76.3084 179.44 69.9723 171.77Z" fill="white"/>
<path d="M263.748 77.0344C266.55 75.5577 268.096 75.8877 268.519 76.2374L227.509 105.476L229.767 102.433L222.796 96.8559C223.752 96.5905 225.208 96.5252 225.816 96.5258L233.542 98.9608C234.825 97.6554 243.583 90.7604 244.187 90.3295C244.671 89.9848 244.307 89.4627 244.065 89.2447L229.225 74.8224C230.705 73.9756 234.13 75.4923 235.658 76.3565L252.735 84.2355C255.239 82.4504 260.947 78.5111 263.748 77.0344Z" fill="white"/>
<path d="M266.196 80.4855C268.506 78.3181 268.698 76.7487 268.505 76.235L227.495 105.474L231.107 104.33L234.108 112.74C234.67 111.922 235.207 110.567 235.404 109.992L235.621 101.894C237.273 101.106 246.646 95.0748 247.251 94.6439C247.734 94.2992 248.109 94.8132 248.236 95.1132L257.033 113.844C258.316 112.721 257.999 108.989 257.68 107.263L255.798 88.55C258.302 86.7649 263.887 82.6528 266.196 80.4855Z" fill="white"/>
<rect x="237.414" y="78.0942" width="6.78816" height="3.81834" rx="1.90917" transform="rotate(-35.4875 237.414 78.0942)" fill="white"/>
<rect x="253.879" y="102.295" width="7.42455" height="3.81834" rx="1.90917" transform="rotate(-35.4875 253.879 102.295)" fill="white"/>
<rect x="245.469" y="81.7266" width="6.78816" height="3.81834" rx="1.90917" transform="rotate(-35.4875 245.469 81.7266)" fill="white"/>
<rect x="252.555" y="93.8613" width="8.06094" height="3.81834" rx="1.90917" transform="rotate(-35.4875 252.555 93.8613)" fill="white"/>
<path d="M690.001 85.5978L722.016 130.608H689.874L673.772 106.138L658.621 130.608H629.015L658.621 85.5978L631.678 46.9267H662.995L674.786 66.706L686.514 46.9267H716.374L690.001 85.5978Z" fill="white"/>
<path d="M414.104 145.732H418.567V165.438H414.104V145.732ZM446.887 145.732V165.438H442.439V153.838L442.633 150.539L441.871 154.316L438.557 163.855H434.183L430.884 154.316L430.137 150.539L430.331 153.838V165.438H425.868V145.732H432.138L436.109 158.884L436.378 160.451L436.646 158.884L440.617 145.732H446.887ZM475.32 145.732V165.438H470.871V153.838L471.065 150.539L470.304 154.316L466.989 163.855H462.615L459.316 154.316L458.57 150.539L458.764 153.838V165.438H454.3V145.732H460.57L464.541 158.884L464.81 160.451L465.078 158.884L469.05 145.732H475.32ZM482.926 145.732H487.39V165.438H482.926V145.732ZM504.066 154.42H514.113V155.674C514.113 157.087 513.874 158.406 513.396 159.63C512.928 160.854 512.257 161.929 511.381 162.855C510.505 163.78 509.46 164.502 508.246 165.019C507.031 165.537 505.688 165.796 504.215 165.796C502.692 165.796 501.309 165.537 500.065 165.019C498.831 164.492 497.766 163.761 496.87 162.825C495.974 161.889 495.288 160.805 494.81 159.571C494.332 158.326 494.093 156.993 494.093 155.57C494.093 154.156 494.332 152.833 494.81 151.599C495.288 150.354 495.974 149.27 496.87 148.344C497.766 147.409 498.831 146.682 500.065 146.164C501.309 145.637 502.692 145.373 504.215 145.373C505.459 145.373 506.554 145.508 507.499 145.776C508.455 146.045 509.276 146.403 509.962 146.851C510.649 147.299 511.231 147.792 511.709 148.329C512.187 148.857 512.585 149.374 512.903 149.882L508.664 151.882C508.256 151.255 507.698 150.708 506.992 150.24C506.295 149.772 505.369 149.538 504.215 149.538C503.409 149.538 502.667 149.698 501.991 150.016C501.324 150.335 500.746 150.772 500.259 151.33C499.771 151.877 499.393 152.519 499.124 153.256C498.865 153.982 498.736 154.753 498.736 155.57C498.736 156.396 498.865 157.172 499.124 157.898C499.393 158.625 499.771 159.267 500.259 159.824C500.746 160.382 501.324 160.82 501.991 161.138C502.667 161.447 503.409 161.601 504.215 161.601C504.922 161.601 505.563 161.511 506.141 161.332C506.718 161.153 507.216 160.894 507.634 160.556C508.062 160.217 508.395 159.819 508.634 159.362C508.883 158.894 509.032 158.381 509.082 157.824H504.066V154.42ZM520.468 145.732H528.5C529.644 145.732 530.664 145.97 531.56 146.448C532.456 146.926 533.162 147.618 533.68 148.523C534.207 149.419 534.471 150.489 534.471 151.733C534.471 152.977 534.247 153.997 533.799 154.793C533.361 155.58 532.834 156.172 532.217 156.57C531.6 156.958 531.027 157.192 530.5 157.271L535.292 165.438H530.276L526.006 157.615H524.932V165.438H520.468V145.732ZM524.932 154.525H526.902C527.698 154.525 528.395 154.331 528.992 153.942C529.589 153.554 529.888 152.867 529.888 151.882C529.888 150.897 529.594 150.215 529.007 149.837C528.42 149.449 527.728 149.255 526.932 149.255H524.932V154.525ZM547.069 145.732H551.503L559.281 165.438H554.519L553.086 161.481H545.502L544.054 165.438H539.276L547.069 145.732ZM546.995 157.57H551.608L549.323 151.106H549.279L546.995 157.57ZM566.486 149.643H561.784V145.732H575.638V149.643H570.95V165.438H566.486V149.643ZM582.08 145.732H586.544V165.438H582.08V145.732ZM597.89 155.57C597.89 156.694 598.119 157.714 598.576 158.63C599.044 159.536 599.686 160.257 600.502 160.795C601.328 161.332 602.284 161.601 603.369 161.601C604.453 161.601 605.404 161.332 606.22 160.795C607.046 160.257 607.688 159.536 608.146 158.63C608.614 157.714 608.847 156.694 608.847 155.57C608.847 154.445 608.614 153.43 608.146 152.524C607.688 151.618 607.046 150.897 606.22 150.359C605.404 149.812 604.453 149.538 603.369 149.538C602.284 149.538 601.328 149.812 600.502 150.359C599.686 150.897 599.044 151.618 598.576 152.524C598.119 153.43 597.89 154.445 597.89 155.57ZM593.247 155.57C593.247 154.136 593.501 152.803 594.008 151.569C594.516 150.325 595.227 149.24 596.143 148.314C597.059 147.389 598.134 146.667 599.368 146.15C600.602 145.632 601.935 145.373 603.369 145.373C604.822 145.373 606.16 145.632 607.384 146.15C608.619 146.667 609.688 147.389 610.594 148.314C611.51 149.24 612.216 150.325 612.714 151.569C613.222 152.803 613.475 154.136 613.475 155.57C613.475 157.013 613.231 158.356 612.744 159.6C612.256 160.834 611.559 161.919 610.654 162.855C609.748 163.78 608.678 164.502 607.444 165.019C606.21 165.537 604.851 165.796 603.369 165.796C601.856 165.796 600.477 165.537 599.233 165.019C597.999 164.502 596.934 163.78 596.039 162.855C595.143 161.919 594.451 160.834 593.963 159.6C593.486 158.356 593.247 157.013 593.247 155.57ZM624.05 149.822L624.379 149.882V165.438H619.915V145.732H626.006L633.993 161.257L633.665 161.317V145.732H638.128V165.438H632.007L624.05 149.822Z" fill="#D22A1D"/>
<path fill-rule="evenodd" clip-rule="evenodd" d="M383.502 129.823H360.315L331.09 46.1411H358.794L371.131 88.244L371.069 88.2626L383.502 129.823ZM388.051 128.823L416.927 46.1411H389.223L376.403 89.8886L388.051 128.823ZM423.772 51.4491C423.772 48.5176 426.148 46.1411 429.08 46.1411H479.94V67.4419H448.306V77.5851H473.517V98.1886H448.306V108.522H479.94V129.823H423.772V51.4491ZM516.584 46.1411H491.987V129.823H537.543L537.542 129.842H545.173H564.082C554.003 123.476 546.73 112.936 545.175 108.618V108.522H516.584V46.1411Z" fill="white"/>
<path fill-rule="evenodd" clip-rule="evenodd" d="M561.746 119.63C568.037 126.401 576.252 131.085 585.29 133.048C594.445 135.037 603.991 134.134 612.612 130.466C621.232 126.797 628.501 120.543 633.415 112.567C638.329 104.59 640.646 95.2852 640.046 85.9359C639.446 76.5865 635.959 67.654 630.066 60.3712C624.172 53.0885 616.164 47.8147 607.145 45.2778C598.127 42.7409 588.543 43.0661 579.717 46.2085C576.863 47.2246 574.134 48.5192 571.565 50.065H605.769C606.236 50.065 606.614 50.4433 606.614 50.91C606.614 51.6879 605.984 52.3184 605.206 52.3184H568.175C565.86 54.0123 563.707 55.9255 561.748 58.0344H594.777V58.0407C597.618 58.0299 600.464 58.4124 603.231 59.1909C609.369 60.9174 614.82 64.5066 618.83 69.463C622.841 74.4194 625.215 80.4986 625.623 86.8614C626.031 93.2243 624.454 99.5569 621.11 104.985C617.765 110.414 612.818 114.67 606.952 117.167C603.233 118.75 599.261 119.576 595.264 119.624V119.63H561.746Z" fill="white"/>
<path d="M560.983 60.4873H578.306C579.473 60.4873 580.418 61.4331 580.418 62.5999V62.5999C580.418 63.7667 579.473 64.7125 578.306 64.7125H557.039L558.87 62.4591L560.983 60.4873Z" fill="white"/>
<rect x="541.262" y="66.6841" width="30.1397" height="4.22519" rx="2.1126" fill="white"/>
<rect x="534.219" y="73.1631" width="32.3931" height="4.22519" rx="2.1126" fill="white"/>
<rect x="528.582" y="79.6406" width="35.7733" height="4.22519" rx="2.1126" fill="white"/>
<rect x="546.906" y="86.6836" width="16.6191" height="4.22519" rx="2.1126" fill="white"/>
<rect x="534.219" y="93.1621" width="30.1397" height="4.22519" rx="2.1126" fill="white"/>
<rect x="548.301" y="99.6411" width="18.3092" height="4.22519" rx="2.1126" fill="white"/>
<rect x="552.812" y="106.119" width="18.5908" height="4.22519" rx="2.1126" fill="white"/>
<path d="M555.629 112.598H577.741C578.907 112.598 579.853 113.544 579.853 114.711V114.711C579.853 115.877 578.907 116.823 577.741 116.823H559.432L555.629 112.598Z" fill="white"/>
<g clip-path="url(#clip0_381_3661)">
<path d="M607.803 99.608C608.067 99.3439 618.915 89.8478 618.915 89.8478L617.066 89.0556C616.01 88.538 616.285 87.8408 616.538 87.2176C616.792 86.4148 618.661 80.1087 618.661 80.1087C618.661 80.1087 613.623 81.165 612.567 81.4291C611.774 81.6826 611.51 81.165 611.246 80.6369C610.982 80.1087 609.662 77.2145 609.662 77.2145C609.662 77.2145 604.106 83.5417 603.842 83.7952C602.785 84.5874 601.718 83.7952 601.982 82.7389C601.982 81.6826 604.898 69.0493 604.898 69.0493C604.898 69.0493 601.718 70.8873 600.662 71.4154C599.87 71.9436 599.331 71.9436 598.803 70.8873C598.264 70.095 594.293 62.458 594.293 62.458C594.293 62.458 590.331 70.095 589.803 70.8873C589.275 71.9436 588.747 71.9436 587.944 71.4154C586.888 70.8873 583.708 69.0493 583.708 69.0493C583.708 69.0493 586.624 81.6826 586.624 82.7389C586.888 83.7952 585.832 84.5874 584.765 83.7952C584.501 83.5311 578.945 77.2145 578.945 77.2145C578.945 77.2145 577.624 80.0982 577.36 80.6263C577.096 81.1545 576.832 81.6721 576.04 81.4186C574.973 81.1545 569.945 80.0982 569.945 80.0982C569.945 80.0982 571.804 86.4043 572.068 87.2071C572.322 87.8408 572.596 88.5274 571.54 89.045L569.691 89.8478C569.691 89.8478 580.529 99.3439 580.804 99.608C581.342 100.136 581.86 100.4 581.342 101.985C580.804 103.569 580.276 105.692 580.276 105.692C580.276 105.692 590.331 103.569 591.398 103.305C592.317 103.21 593.331 103.569 593.331 104.625C593.331 105.497 592.914 113.039 592.768 115.653C592.741 116.138 593.127 116.54 593.613 116.54H594.993C595.479 116.54 595.865 116.138 595.838 115.653C595.692 113.04 595.275 105.505 595.275 104.625C595.275 103.559 596.278 103.21 597.219 103.305C598.275 103.569 608.331 105.692 608.331 105.692C608.331 105.692 607.803 103.569 607.274 101.985C606.746 100.4 607.274 100.136 607.803 99.608Z" fill="#D22A1D"/>
</g>
<defs>
<clipPath id="clip0_381_3661">
<rect width="54.0824" height="54.0824" fill="white" transform="translate(567.254 62.458)"/>
</clipPath>
</defs>
</svg>
