<svg width="203" height="61" viewBox="0 0 203 61" fill="none" xmlns="http://www.w3.org/2000/svg">
<path fill-rule="evenodd" clip-rule="evenodd" d="M19.1723 60.2655L18.9258 60.6622H19.4192L19.1723 60.2655ZM58.4034 27.3688L74.996 0.661133H56.2024L48.9982 12.2571L58.4034 27.3688Z" fill="#122E4D"/>
<path fill-rule="evenodd" clip-rule="evenodd" d="M62.1826 60.6618L24.9062 0.661133H43.6998L80.9762 60.6618H62.1826Z" fill="#D22A1D"/>
<path fill-rule="evenodd" clip-rule="evenodd" d="M0.328125 0.661743L37.6042 60.6621H37.7395L47.0833 45.6692L19.1217 0.661743H0.328125Z" fill="#122E4D"/>
<path d="M19.6958 48.8489C17.918 46.6968 22.2299 43.0399 24.6081 41.4805C20.6902 43.6442 16.8886 47.2699 18.643 50.0185C20.3974 52.767 25.6605 51.5389 28.526 50.7787C31.3915 50.0185 39.4032 46.0419 45.4266 42.767C50.2453 40.1471 57.142 35.3986 59.988 33.3518C46.7014 41.0243 34.374 46.4122 29.871 48.1471C27.22 49.2777 21.4736 51.0009 19.6958 48.8489Z" fill="#122E4D"/>
<path d="M74.0674 22.268C74.8535 21.8537 75.2874 21.9463 75.406 22.0444L63.8994 30.2482L64.533 29.3945L62.5769 27.8295C62.8453 27.7551 63.2537 27.7368 63.4243 27.7369L65.5922 28.4201C65.9522 28.0538 68.4094 26.1192 68.579 25.9983C68.7146 25.9016 68.6126 25.7551 68.5447 25.694L64.3807 21.6474C64.796 21.4098 65.757 21.8353 66.1857 22.0778L70.9772 24.2885C71.6797 23.7876 73.2813 22.6823 74.0674 22.268Z" fill="#153350"/>
<path d="M74.7486 23.2362C75.3965 22.6281 75.4504 22.1878 75.3963 22.0436L63.8897 30.2474L64.9033 29.9267L65.7451 32.2861C65.903 32.0566 66.0534 31.6765 66.1089 31.5152L66.1697 29.243C66.6333 29.0221 69.2633 27.3297 69.4328 27.2088C69.5685 27.1121 69.6737 27.2563 69.7094 27.3405L72.1776 32.5961C72.5376 32.281 72.4486 31.2337 72.3591 30.7494L71.8311 25.499C72.5336 24.9981 74.1006 23.8443 74.7486 23.2362Z" fill="#153350"/>
<rect x="66.6719" y="22.5653" width="1.90463" height="1.07135" rx="0.535677" transform="rotate(-35.4875 66.6719 22.5653)" fill="#153350"/>
<rect x="71.293" y="29.3553" width="2.08319" height="1.07135" rx="0.535677" transform="rotate(-35.4875 71.293 29.3553)" fill="#153350"/>
<rect x="68.9336" y="23.5844" width="1.90463" height="1.07135" rx="0.535677" transform="rotate(-35.4875 68.9336 23.5844)" fill="#153350"/>
<rect x="70.9219" y="26.9889" width="2.26175" height="1.07135" rx="0.535677" transform="rotate(-35.4875 70.9219 26.9889)" fill="#153350"/>
<path d="M193.965 24.6991L202.947 37.3282H193.929L189.411 30.4623L185.16 37.3282H176.853L185.16 24.6991L177.6 13.8488H186.387L189.696 19.3985L192.986 13.8488H201.364L193.965 24.6991Z" fill="#122E4D"/>
<path d="M116.564 41.6512H117.816V47.1803H116.564V41.6512ZM125.763 41.6512V47.1803H124.514V43.9257L124.569 43L124.355 44.0597L123.425 46.7363H122.198L121.272 44.0597L121.063 43L121.117 43.9257V47.1803H119.865V41.6512H121.624L122.738 45.3414L122.814 45.7813L122.889 45.3414L124.003 41.6512H125.763ZM133.74 41.6512V47.1803H132.492V43.9257L132.546 43L132.333 44.0597L131.403 46.7363H130.175L129.25 44.0597L129.04 43L129.095 43.9257V47.1803H127.842V41.6512H129.602L130.716 45.3414L130.791 45.7813L130.867 45.3414L131.981 41.6512H133.74ZM135.874 41.6512H137.127V47.1803H135.874V41.6512ZM141.806 44.089H144.625V44.4409C144.625 44.8374 144.558 45.2074 144.424 45.5509C144.292 45.8944 144.104 46.1959 143.858 46.4556C143.612 46.7153 143.319 46.9178 142.979 47.063C142.638 47.2082 142.261 47.2808 141.848 47.2808C141.42 47.2808 141.032 47.2082 140.683 47.063C140.337 46.915 140.038 46.7098 139.787 46.4473C139.535 46.1848 139.343 45.8804 139.209 45.5341C139.075 45.1851 139.008 44.8109 139.008 44.4116C139.008 44.015 139.075 43.6436 139.209 43.2974C139.343 42.9483 139.535 42.6439 139.787 42.3842C140.038 42.1217 140.337 41.9179 140.683 41.7727C141.032 41.6247 141.42 41.5507 141.848 41.5507C142.197 41.5507 142.504 41.5884 142.769 41.6638C143.037 41.7392 143.268 41.8397 143.46 41.9653C143.653 42.091 143.816 42.2292 143.95 42.38C144.084 42.528 144.196 42.6732 144.285 42.8157L143.096 43.3769C142.981 43.201 142.825 43.0474 142.627 42.9162C142.431 42.7849 142.171 42.7193 141.848 42.7193C141.621 42.7193 141.413 42.764 141.223 42.8533C141.036 42.9427 140.874 43.0656 140.738 43.222C140.601 43.3755 140.495 43.5557 140.419 43.7623C140.347 43.9662 140.31 44.1826 140.31 44.4116C140.31 44.6433 140.347 44.8611 140.419 45.065C140.495 45.2688 140.601 45.449 140.738 45.6053C140.874 45.7617 141.036 45.8846 141.223 45.9739C141.413 46.0605 141.621 46.1038 141.848 46.1038C142.046 46.1038 142.226 46.0787 142.388 46.0284C142.55 45.9781 142.689 45.9055 142.807 45.8106C142.927 45.7156 143.02 45.6039 143.087 45.4755C143.157 45.3442 143.199 45.2004 143.213 45.0441H141.806V44.089ZM146.408 41.6512H148.661C148.982 41.6512 149.269 41.7182 149.52 41.8522C149.771 41.9863 149.97 42.1804 150.115 42.4345C150.263 42.6858 150.337 42.986 150.337 43.3351C150.337 43.6841 150.274 43.9703 150.148 44.1937C150.025 44.4143 149.877 44.5805 149.704 44.6922C149.531 44.8011 149.371 44.8667 149.223 44.8891L150.567 47.1803H149.16L147.962 44.9854H147.66V47.1803H146.408V41.6512ZM147.66 44.1183H148.213C148.437 44.1183 148.632 44.0639 148.8 43.955C148.967 43.8461 149.051 43.6534 149.051 43.3769C149.051 43.1005 148.969 42.9092 148.804 42.8031C148.639 42.6942 148.445 42.6397 148.222 42.6397H147.66V44.1183ZM153.872 41.6512H155.116L157.298 47.1803H155.962L155.56 46.0703H153.432L153.026 47.1803H151.685L153.872 41.6512ZM153.851 44.9728H155.145L154.504 43.1591H154.492L153.851 44.9728ZM159.32 42.7486H158V41.6512H161.887V42.7486H160.572V47.1803H159.32V42.7486ZM163.695 41.6512H164.947V47.1803H163.695V41.6512ZM168.131 44.4116C168.131 44.7271 168.195 45.0133 168.324 45.2702C168.455 45.5244 168.635 45.7268 168.864 45.8776C169.096 46.0284 169.364 46.1038 169.668 46.1038C169.973 46.1038 170.239 46.0284 170.468 45.8776C170.7 45.7268 170.88 45.5244 171.009 45.2702C171.14 45.0133 171.205 44.7271 171.205 44.4116C171.205 44.096 171.14 43.8112 171.009 43.5571C170.88 43.3029 170.7 43.1005 170.468 42.9497C170.239 42.7961 169.973 42.7193 169.668 42.7193C169.364 42.7193 169.096 42.7961 168.864 42.9497C168.635 43.1005 168.455 43.3029 168.324 43.5571C168.195 43.8112 168.131 44.096 168.131 44.4116ZM166.828 44.4116C166.828 44.0094 166.899 43.6352 167.042 43.289C167.184 42.9399 167.384 42.6355 167.641 42.3758C167.898 42.1161 168.199 41.9137 168.546 41.7685C168.892 41.6233 169.266 41.5507 169.668 41.5507C170.076 41.5507 170.451 41.6233 170.795 41.7685C171.141 41.9137 171.441 42.1161 171.696 42.3758C171.952 42.6355 172.151 42.9399 172.29 43.289C172.433 43.6352 172.504 44.0094 172.504 44.4116C172.504 44.8165 172.436 45.1934 172.299 45.5425C172.162 45.8888 171.966 46.1932 171.712 46.4556C171.458 46.7153 171.158 46.9178 170.812 47.063C170.465 47.2082 170.084 47.2808 169.668 47.2808C169.244 47.2808 168.857 47.2082 168.508 47.063C168.162 46.9178 167.863 46.7153 167.612 46.4556C167.36 46.1932 167.166 45.8888 167.029 45.5425C166.895 45.1934 166.828 44.8165 166.828 44.4116ZM175.471 42.7989L175.563 42.8157V47.1803H174.311V41.6512H176.02L178.261 46.0075L178.169 46.0242V41.6512H179.421V47.1803H177.704L175.471 42.7989Z" fill="#D22A1D"/>
<path fill-rule="evenodd" clip-rule="evenodd" d="M101.462 37.0795L93.2617 13.6H101.035L104.496 25.4128L104.478 25.4184L107.966 37.0795H101.462ZM109.243 36.8009L117.346 13.6H109.573L105.975 25.8769L109.243 36.8009ZM119.266 15.0893C119.266 14.2668 119.933 13.6 120.756 13.6H135.026V19.5766H126.15V22.4226H133.224V28.2035H126.15V31.1029H135.026V37.0795H119.266V15.0893ZM145.308 13.6H138.406V37.0795H151.189L151.188 37.0848H153.329H158.635C155.807 35.2986 153.766 32.3407 153.33 31.1294V31.1029H145.308V13.6Z" fill="#122E4D"/>
<path fill-rule="evenodd" clip-rule="evenodd" d="M157.98 34.2195C159.746 36.1192 162.051 37.4336 164.586 37.9843C167.155 38.5423 169.834 38.2891 172.252 37.2597C174.671 36.2303 176.711 34.4755 178.089 32.2375C179.468 29.9995 180.118 27.3887 179.95 24.7655C179.782 22.1422 178.803 19.6359 177.15 17.5925C175.496 15.5491 173.249 14.0694 170.719 13.3576C168.188 12.6458 165.499 12.737 163.023 13.6187C162.222 13.9039 161.456 14.2672 160.735 14.7011H170.33C170.461 14.7011 170.567 14.8072 170.567 14.9382C170.567 15.1564 170.39 15.3333 170.172 15.3333H159.784C159.135 15.8085 158.531 16.3452 157.981 16.9367H167.25V16.9386C168.046 16.9357 168.844 17.043 169.621 17.2613C171.343 17.7458 172.872 18.7528 173.997 20.1435C175.123 21.5342 175.789 23.2399 175.903 25.0252C176.018 26.8105 175.575 28.5873 174.637 30.1104C173.698 31.6335 172.31 32.8278 170.664 33.5283C169.62 33.9727 168.505 34.2046 167.382 34.2178V34.2195H157.98Z" fill="#122E4D"/>
<path d="M157.767 17.6252H162.627C162.955 17.6252 163.22 17.8906 163.22 18.218V18.218C163.22 18.5454 162.955 18.8108 162.627 18.8108H156.66L157.174 18.1785L157.767 17.6252Z" fill="#122E4D"/>
<rect x="152.234" y="19.3639" width="8.45662" height="1.18551" rx="0.592754" fill="#122E4D"/>
<rect x="150.254" y="21.1818" width="9.08889" height="1.18551" rx="0.592754" fill="#122E4D"/>
<rect x="148.672" y="22.9994" width="10.0373" height="1.18551" rx="0.592754" fill="#122E4D"/>
<rect x="153.816" y="24.9753" width="4.663" height="1.18551" rx="0.592754" fill="#122E4D"/>
<rect x="150.254" y="26.7931" width="8.45662" height="1.18551" rx="0.592754" fill="#122E4D"/>
<rect x="154.207" y="28.611" width="5.1372" height="1.18551" rx="0.592754" fill="#122E4D"/>
<rect x="155.473" y="30.4285" width="5.21624" height="1.18551" rx="0.592754" fill="#122E4D"/>
<path d="M156.266 32.2466H162.47C162.797 32.2466 163.063 32.512 163.063 32.8393V32.8393C163.063 33.1667 162.797 33.4321 162.47 33.4321H157.333L156.266 32.2466Z" fill="#122E4D"/>
<g clip-path="url(#clip0_422_5928)">
<path d="M170.904 28.602C170.978 28.528 174.022 25.8635 174.022 25.8635L173.503 25.6412C173.207 25.496 173.284 25.3004 173.355 25.1255C173.426 24.9003 173.951 23.1309 173.951 23.1309C173.951 23.1309 172.537 23.4273 172.241 23.5014C172.019 23.5725 171.945 23.4273 171.87 23.2791C171.796 23.1309 171.426 22.3189 171.426 22.3189C171.426 22.3189 169.867 24.0942 169.793 24.1653C169.496 24.3876 169.197 24.1653 169.271 23.8689C169.271 23.5725 170.089 20.0279 170.089 20.0279C170.089 20.0279 169.197 20.5436 168.901 20.6917C168.678 20.8399 168.527 20.8399 168.379 20.5436C168.228 20.3213 167.114 18.1785 167.114 18.1785C167.114 18.1785 166.002 20.3213 165.854 20.5436C165.706 20.8399 165.558 20.8399 165.332 20.6917C165.036 20.5436 164.144 20.0279 164.144 20.0279C164.144 20.0279 164.962 23.5725 164.962 23.8689C165.036 24.1653 164.74 24.3876 164.44 24.1653C164.366 24.0912 162.807 22.3189 162.807 22.3189C162.807 22.3189 162.437 23.128 162.363 23.2762C162.289 23.4243 162.214 23.5696 161.992 23.4984C161.693 23.4243 160.282 23.128 160.282 23.128C160.282 23.128 160.804 24.8973 160.878 25.1226C160.949 25.3004 161.026 25.4931 160.73 25.6383L160.211 25.8635C160.211 25.8635 163.252 28.528 163.329 28.602C163.48 28.7502 163.625 28.8243 163.48 29.2689C163.329 29.7135 163.181 30.3092 163.181 30.3092C163.181 30.3092 166.002 29.7135 166.301 29.6394C166.559 29.6127 166.844 29.7135 166.844 30.0098C166.844 30.2543 166.727 32.3705 166.686 33.1039C166.678 33.2399 166.787 33.353 166.923 33.353H167.31C167.446 33.353 167.555 33.2399 167.547 33.1039C167.506 32.3709 167.389 30.2567 167.389 30.0098C167.389 29.7105 167.671 29.6127 167.935 29.6394C168.231 29.7135 171.052 30.3092 171.052 30.3092C171.052 30.3092 170.904 29.7135 170.756 29.2689C170.608 28.8243 170.756 28.7502 170.904 28.602Z" fill="#D22A1D"/>
</g>
<defs>
<clipPath id="clip0_422_5928">
<rect width="15.1745" height="15.1745" fill="white" transform="translate(159.523 18.1785)"/>
</clipPath>
</defs>
</svg>
