<svg width="20" height="20" viewBox="0 0 20 20" fill="none" xmlns="http://www.w3.org/2000/svg">
<path d="M17.9321 9.33575C19.1551 9.50102 19.571 9.95552 19.6261 10.1621H0L1.40482 9.70761L0.454499 6.36085C0.818099 6.49306 1.29463 6.80157 1.48745 6.9393L3.38809 9.45971C4.09049 9.33575 8.4289 9.12916 8.71812 9.12916C8.9495 9.12916 8.95226 8.88125 8.92471 8.7573L7.47858 0.824219C8.13967 0.890328 8.8834 2.1464 9.17262 2.76617L12.8086 9.12916C14.0068 9.12916 16.709 9.17048 17.9321 9.33575Z" fill="#D22A1D"/>
<path d="M17.9321 10.9885C19.1551 10.8232 19.571 10.3687 19.6261 10.1621H0L1.40482 10.6166L0.454499 13.9634C0.818099 13.8312 1.29463 13.5226 1.48745 13.3849L3.38809 10.8645C4.09049 10.9885 8.4289 11.1951 8.71812 11.1951C8.9495 11.1951 8.95226 11.443 8.92471 11.5669L7.47858 19.5C8.13967 19.4339 8.8834 18.1778 9.17262 17.558L12.8086 11.1951C14.0068 11.1951 16.709 11.1537 17.9321 10.9885Z" fill="#D22A1D"/>
<rect x="9.33984" y="3.71655" width="2.64436" height="1.48745" rx="0.743726" fill="#D22A1D"/>
<rect x="9.08984" y="15.1204" width="2.89227" height="1.48745" rx="0.743726" fill="#D22A1D"/>
<rect x="11.0742" y="6.69141" width="2.64436" height="1.48745" rx="0.743726" fill="#D22A1D"/>
<rect x="10.5781" y="12.1453" width="3.14018" height="1.48745" rx="0.743726" fill="#D22A1D"/>
</svg>
