<svg width="57" height="42" viewBox="0 0 57 42" fill="none" xmlns="http://www.w3.org/2000/svg">
<path d="M51.8439 34.3547C52.4313 34.8474 53.3119 34.7736 53.7565 34.149C55.4176 31.8157 56.4848 29.1039 56.8548 26.2495C57.2844 22.935 56.7559 19.5668 55.3318 16.5431C53.9076 13.5195 51.6474 10.9669 48.8184 9.18723C45.9893 7.40756 42.7098 6.47523 39.3677 6.5005C36.0255 6.52577 32.7605 7.50757 29.9587 9.32982C27.1569 11.1521 24.9356 13.7385 23.5573 16.7833C22.179 19.8282 21.7015 23.204 22.1812 26.5116C22.5943 29.3601 23.7024 32.0555 25.3986 34.3634C25.8526 34.9812 26.7342 35.0417 27.3141 34.5401V34.5401C27.8939 34.0386 27.9514 33.1653 27.5067 32.5408C26.1524 30.6391 25.2658 28.4367 24.9288 26.1132C24.5252 23.3303 24.927 20.49 26.0866 17.9283C27.2462 15.3665 29.1152 13.1904 31.4725 11.6572C33.8297 10.1241 36.5768 9.29805 39.3887 9.27679C42.2006 9.25553 44.9598 10.0399 47.34 11.5373C49.7202 13.0346 51.6219 15.1822 52.8201 17.7261C54.0183 20.2701 54.4629 23.1039 54.1015 25.8926C53.7997 28.221 52.9464 30.4366 51.6211 32.3585C51.1859 32.9896 51.2565 33.8619 51.8439 34.3547V34.3547Z" fill="#D22A1D"/>
<path d="M39.5234 28.3486L45.6495 15.8717" stroke="#D22A1D" stroke-width="2" stroke-linecap="round"/>
<circle cx="40" cy="27.5" r="2" fill="#D22A1D"/>
<path d="M2.5 32C2.5 31.1716 3.17157 30.5 4 30.5H19C19.8284 30.5 20.5 31.1716 20.5 32V32C20.5 32.8284 19.8284 33.5 19 33.5H4C3.17157 33.5 2.5 32.8284 2.5 32V32Z" fill="#D22A1D"/>
<path d="M0 24C0 23.1716 0.671573 22.5 1.5 22.5H16.5C17.3284 22.5 18 23.1716 18 24V24C18 24.8284 17.3284 25.5 16.5 25.5H1.5C0.671573 25.5 0 24.8284 0 24V24Z" fill="#D22A1D"/>
<path d="M1 16C1 15.1716 1.67157 14.5 2.5 14.5H17.5C18.3284 14.5 19 15.1716 19 16V16C19 16.8284 18.3284 17.5 17.5 17.5H2.5C1.67157 17.5 1 16.8284 1 16V16Z" fill="#D22A1D"/>
<path d="M6 8C6 7.17157 6.67157 6.5 7.5 6.5H22.5C23.3284 6.5 24 7.17157 24 8V8C24 8.82843 23.3284 9.5 22.5 9.5H7.5C6.67157 9.5 6 8.82843 6 8V8Z" fill="#D22A1D"/>
</svg>
