<svg width="22" height="22" viewBox="0 0 22 22" fill="none" xmlns="http://www.w3.org/2000/svg">
<g clip-path="url(#clip0_425_6146)">
<path d="M19.8 4.4001H18.7V20.9001H19.8C21.01 20.9001 22 19.9101 22 18.7001V6.6001C22 5.3901 21.01 4.4001 19.8 4.4001ZM0 6.6001V18.7001C0 19.9101 0.9889 20.9001 2.2 20.9001H3.3V4.4001H2.2C0.9889 4.4001 0 5.3901 0 6.6001ZM14.85 2.0967C14.1009 1.7491 12.7721 1.1001 10.9791 1.1001C9.1828 1.1001 7.8991 1.7491 7.15 2.0967V4.4001H4.4V20.9001H17.6V4.4001H14.85V2.0967ZM13.2 4.4001H8.8V2.9305C9.3874 2.6775 9.9858 2.419 10.9791 2.419C11.9713 2.419 12.6137 2.6764 13.2 2.9305V4.4001Z" fill="black"/>
</g>
<defs>
<clipPath id="clip0_425_6146">
<rect width="22" height="22" fill="white"/>
</clipPath>
</defs>
</svg>
