<svg width="28" height="28" viewBox="0 0 28 28" fill="none" xmlns="http://www.w3.org/2000/svg">
<path d="M4.66797 5.83326C4.66799 5.67811 4.69896 5.52453 4.75905 5.3815C4.81915 5.23847 4.90717 5.10886 5.01797 5.00026C6.28945 3.75384 7.98813 3.03878 9.76823 3.00063C11.5483 2.96249 13.2761 3.60412 14.5998 4.79492L15.0093 5.17759C15.8603 5.92321 16.9532 6.33426 18.0846 6.33426C19.2161 6.33426 20.309 5.92321 21.16 5.17759L21.4505 4.91276C22.1621 4.34926 23.232 4.79959 23.3288 5.70142L23.3346 5.83326V16.3333C23.3346 16.4884 23.3036 16.642 23.2435 16.785C23.1835 16.928 23.0954 17.0577 22.9846 17.1663C21.7132 18.4127 20.0145 19.1277 18.2344 19.1659C16.4543 19.204 14.7265 18.5624 13.4028 17.3716L12.9933 16.9889C12.1691 16.2668 11.117 15.8577 10.0215 15.8334C8.92592 15.809 7.85674 16.171 7.0013 16.8559V24.4999C7.00097 24.7973 6.88711 25.0833 6.68298 25.2995C6.47885 25.5157 6.19986 25.6459 5.90301 25.6633C5.60616 25.6807 5.31386 25.5841 5.08583 25.3933C4.8578 25.2024 4.71126 24.9317 4.67614 24.6364L4.66797 24.4999V5.83326Z" fill="black"/>
</svg>
