<svg width="28" height="28" viewBox="0 0 28 28" fill="none" xmlns="http://www.w3.org/2000/svg">
<path d="M14.0008 4.90063L1.23047 9.68962L14.0008 16.0748L20.0831 13.0336L14.3772 11.2891C14.2597 11.3454 14.1311 11.3748 14.0008 11.3751C13.7687 11.3751 13.5461 11.2829 13.382 11.1188C13.218 10.9547 13.1258 10.7322 13.1258 10.5001C13.1258 10.268 13.218 10.0455 13.382 9.88137C13.5461 9.71727 13.7687 9.62509 14.0008 9.62509L13.8561 10.0955L14.8698 10.4074L14.8702 10.4105L16.3662 10.8679L24.8836 13.4885V14.1527C24.7658 14.2329 24.6693 14.3406 24.6026 14.4665C24.5359 14.5924 24.5009 14.7327 24.5008 14.8751C24.5009 15.0209 24.5375 15.1643 24.6071 15.2923C24.6768 15.4204 24.7773 15.529 24.8996 15.6083C24.5013 17.1136 24.5008 20.5288 24.5008 21.8751C25.3758 22.4436 25.3758 22.4643 26.2508 21.8751C26.2508 20.529 26.2503 17.1144 25.8521 15.6088C25.9744 15.5294 26.075 15.4207 26.1446 15.2926C26.2142 15.1644 26.2507 15.0209 26.2508 14.8751C26.2508 14.7324 26.2159 14.592 26.1491 14.4659C26.0824 14.3398 25.9859 14.232 25.868 14.1517V12.7616L22.6237 11.7634L26.7711 9.68962L14.0008 4.90063ZM6.54265 13.6173L5.82498 17.9234C7.25643 18.1106 8.96875 18.9426 10.5429 19.9264C11.4381 20.486 12.2766 21.1002 12.9577 21.6961C13.3739 22.0603 13.722 22.4098 14.0008 22.7536C14.2795 22.4097 14.6276 22.0603 15.0439 21.6961C15.7249 21.1002 16.5634 20.486 17.4587 19.9264C19.0328 18.9426 20.7451 18.1106 22.1765 17.9234L21.4588 13.6173H21.117L14.0008 17.1754L6.88445 13.6173H6.54265Z" fill="black"/>
</svg>
