<svg width="28" height="28" viewBox="0 0 28 28" fill="none" xmlns="http://www.w3.org/2000/svg">
<path d="M24.4987 8.16667H17.4987C17.1893 8.16667 16.8925 8.28958 16.6737 8.50838C16.4549 8.72717 16.332 9.02391 16.332 9.33333V12.8333H13.9987V4.66667C13.9987 4.35725 13.8758 4.0605 13.657 3.84171C13.4382 3.62292 13.1415 3.5 12.832 3.5H3.4987C3.18928 3.5 2.89253 3.62292 2.67374 3.84171C2.45495 4.0605 2.33203 4.35725 2.33203 4.66667V23.3333C2.33203 23.6428 2.45495 23.9395 2.67374 24.1583C2.89253 24.3771 3.18928 24.5 3.4987 24.5H24.4987C24.8081 24.5 25.1049 24.3771 25.3237 24.1583C25.5424 23.9395 25.6654 23.6428 25.6654 23.3333V9.33333C25.6654 9.02391 25.5424 8.72717 25.3237 8.50838C25.1049 8.28958 24.8081 8.16667 24.4987 8.16667ZM9.33203 7H11.6654V9.33333H9.33203V7ZM6.9987 18.6667H4.66536V16.3333H6.9987V18.6667ZM6.9987 14H4.66536V11.6667H6.9987V14ZM6.9987 9.33333H4.66536V7H6.9987V9.33333ZM11.6654 18.6667H9.33203V16.3333H11.6654V18.6667ZM11.6654 14H9.33203V11.6667H11.6654V14ZM22.1654 18.6667H19.832V16.3333H22.1654V18.6667ZM22.1654 14H19.832V11.6667H22.1654V14Z" fill="black"/>
</svg>
