<svg width="30" height="30" viewBox="0 0 30 30" fill="none" xmlns="http://www.w3.org/2000/svg">
<path d="M27.5016 3.75H8.75156C7.88906 3.75 7.21406 4.1875 6.76406 4.85L0.464063 14.3125C0.189062 14.7375 0.189062 15.275 0.464063 15.7L6.76406 25.15C7.21406 25.8 7.97656 26.25 8.83906 26.25H27.5016C28.8766 26.25 30.0016 25.125 30.0016 23.75V6.25C30.0016 4.875 28.8766 3.75 27.5016 3.75ZM11.2516 16.875C10.2141 16.875 9.37656 16.0375 9.37656 15C9.37656 13.9625 10.2141 13.125 11.2516 13.125C12.2891 13.125 13.1266 13.9625 13.1266 15C13.1266 16.0375 12.2891 16.875 11.2516 16.875ZM17.5016 16.875C16.4641 16.875 15.6266 16.0375 15.6266 15C15.6266 13.9625 16.4641 13.125 17.5016 13.125C18.5391 13.125 19.3766 13.9625 19.3766 15C19.3766 16.0375 18.5391 16.875 17.5016 16.875ZM23.7516 16.875C22.7141 16.875 21.8766 16.0375 21.8766 15C21.8766 13.9625 22.7141 13.125 23.7516 13.125C24.7891 13.125 25.6266 13.9625 25.6266 15C25.6266 16.0375 24.7891 16.875 23.7516 16.875Z" fill="black"/>
</svg>
