<svg width="38" height="38" viewBox="0 0 38 38" fill="none" xmlns="http://www.w3.org/2000/svg">
<path d="M23.7565 6.33374C27.1159 6.33374 30.3377 7.66826 32.7132 10.0437C35.0887 12.4192 36.4232 15.641 36.4232 19.0004C36.4232 22.3598 35.0887 25.5816 32.7132 27.9571C30.3377 30.3326 27.1159 31.6671 23.7565 31.6671C20.3971 31.6671 17.1753 30.3326 14.7998 27.9571C12.4244 25.5816 11.0898 22.3598 11.0898 19.0004C11.0898 15.641 12.4244 12.4192 14.7998 10.0437C17.1753 7.66826 20.3971 6.33374 23.7565 6.33374ZM23.7565 9.50041C21.237 9.50041 18.8206 10.5013 17.039 12.2829C15.2574 14.0645 14.2565 16.4809 14.2565 19.0004C14.2565 21.52 15.2574 23.9363 17.039 25.7179C18.8206 27.4995 21.237 28.5004 23.7565 28.5004C26.2761 28.5004 28.6924 27.4995 30.474 25.7179C32.2556 23.9363 33.2565 21.52 33.2565 19.0004C33.2565 16.4809 32.2556 14.0645 30.474 12.2829C28.6924 10.5013 26.2761 9.50041 23.7565 9.50041ZM22.1732 12.6671H24.5482V18.6521L28.2373 22.3412L26.559 24.0196L22.1732 19.6337V12.6671ZM3.17318 28.5004C2.75325 28.5004 2.35052 28.3336 2.05359 28.0367C1.75666 27.7397 1.58984 27.337 1.58984 26.9171C1.58984 26.4971 1.75666 26.0944 2.05359 25.7975C2.35052 25.5006 2.75325 25.3337 3.17318 25.3337H9.23734C9.72818 26.4579 10.3615 27.5187 11.0898 28.5004H3.17318ZM4.75651 20.5837C4.33658 20.5837 3.93386 20.4169 3.63692 20.12C3.33999 19.8231 3.17318 19.4203 3.17318 19.0004C3.17318 18.5805 3.33999 18.1778 3.63692 17.8808C3.93386 17.5839 4.33658 17.4171 4.75651 17.4171H8.00234L7.92318 19.0004L8.00234 20.5837H4.75651ZM6.33984 12.6671C5.91992 12.6671 5.51719 12.5003 5.22026 12.2033C4.92333 11.9064 4.75651 11.5037 4.75651 11.0837C4.75651 10.6638 4.92333 10.2611 5.22026 9.96415C5.51719 9.66722 5.91992 9.50041 6.33984 9.50041H11.0898C10.3615 10.4821 9.72818 11.5429 9.23734 12.6671H6.33984Z" fill="black"/>
</svg>
